<?xml version="1.0" encoding="UTF-8" standalone="no" ?>
<!DOCTYPE svg PUBLIC "-//W3C//DTD SVG 1.1//EN" "http://www.w3.org/Graphics/SVG/1.1/DTD/svg11.dtd">
<svg xmlns="http://www.w3.org/2000/svg" xmlns:xlink="http://www.w3.org/1999/xlink" version="1.1" width="500" height="500" viewBox="0 0 500 500" xml:space="preserve">
<desc>Created with Fabric.js 4.6.0</desc>
<defs>
</defs>
<g transform="matrix(3.56 0 0 3.56 160 144)" id="159iESOoBBrWRCmOs_3r3"  >
<path style="stroke: none; stroke-width: 1; stroke-dasharray: none; stroke-linecap: butt; stroke-dashoffset: 0; stroke-linejoin: miter; stroke-miterlimit: 4; fill: rgb(255,255,255); fill-rule: evenodd; opacity: 1;" vector-effect="non-scaling-stroke"  transform=" translate(-36, -40.5)" d="M 58.0084 52.1727 C 63.0319 39.3195 65.5441 23.8332 65.9432 12.2297 C 65.5565 12.586 65.149 12.9706 64.7205 13.3837 C 63.0792 14.9664 61.3538 16.745 59.5276 18.6276 L 59.5274 18.6277 C 59.0957 19.0727 58.6584 19.5235 58.2152 19.9789 C 55.9572 22.2993 53.5599 24.7249 51.2591 26.7684 C 49.7956 28.0682 48.1587 29.4099 46.4464 30.4935 L 55.994 56.8809 C 56.6974 55.3801 57.3693 53.8079 58.0084 52.1727 Z M 52.6977 63 L 46.624 63 L 43.936 55.064 L 27.168 55.064 L 24.48 63 L 19.062 63 C 20.5057 65.3438 22.05 67.402 23.6865 69.1216 C 27.4258 73.0504 31.4115 75 35.8305 75 C 40.2541 75 44.2662 73.0462 48.0418 69.1065 C 49.6872 67.3897 51.2421 65.3365 52.6977 63 Z M 15.4899 56.1848 C 14.9149 54.9047 14.3623 53.5749 13.8329 52.2004 C 8.66255 38.7758 6.22955 22.4696 6.01554 10.7038 C 10.6388 15.0855 17.7253 21.1703 27.2747 23.6142 L 15.4899 56.1848 Z M 29.9091 18.072 C 20.1251 15.9941 13.0424 9.15678 8.23304 4.51402 L 8.23304 4.51402 C 2.5031 -1.01738 0 -3.43375 0 9.02488 C 0 33.9432 10.0133 81 35.8305 81 C 61.6478 81 72 33.9432 72 9.02488 C 72 -2.84844 63.788 5.61762 55.1899 14.4818 C 51.429 18.359 47.5942 22.3125 44.3405 24.6732 L 41.952 18.072 L 29.9091 18.072 Z M 35.0505 31.6668 L 30.048 46.616 L 41.12 46.616 L 36.2581 32.2538 C 35.8408 32.0905 35.4374 31.8944 35.0505 31.6668 Z M 65.8313 7.03063 C 65.8319 7.03265 65.8331 7.03603 65.8347 7.04069 C 65.8321 7.03228 65.8307 7.0283 65.8307 7.0284 C 65.8307 7.02844 65.8309 7.0292 65.8313 7.03063 Z M 6.37218 3.45364 C 6.3777 3.43499 6.38083 3.42633 6.38102 3.42666 C 6.3812 3.42699 6.37845 3.43631 6.37218 3.45364 Z" stroke-linecap="round" />
</g>
</svg>